<svg width="21" height="21" viewBox="0 0 21 21" fill="none" xmlns="http://www.w3.org/2000/svg">
<path d="M12.355 12.355C12.1147 12.6129 11.8249 12.8198 11.5029 12.9633C11.1809 13.1067 10.8333 13.1839 10.4808 13.1901C10.1284 13.1963 9.77827 13.1315 9.45141 12.9995C9.12455 12.8674 8.82763 12.6709 8.57837 12.4217C8.3291 12.1724 8.13259 11.8755 8.00057 11.5486C7.86855 11.2218 7.80371 10.8717 7.80993 10.5192C7.81615 10.1667 7.8933 9.81914 8.03677 9.49714C8.18024 9.17514 8.3871 8.88534 8.645 8.64502M15.6975 15.6975C14.2018 16.8377 12.3805 17.4693 10.5 17.5C4.375 17.5 0.875 10.5 0.875 10.5C1.9634 8.47168 3.47299 6.69955 5.3025 5.30252L15.6975 15.6975ZM8.6625 3.71002C9.26479 3.56904 9.88143 3.49857 10.5 3.50002C16.625 3.50002 20.125 10.5 20.125 10.5C19.5939 11.4937 18.9604 12.4292 18.235 13.2913L8.6625 3.71002Z" stroke="black" stroke-linecap="round" stroke-linejoin="round"/>
<path d="M0.875 0.875L20.125 20.125" stroke="black" stroke-linecap="round" stroke-linejoin="round"/>
</svg>
