<svg width="102" height="43" viewBox="0 0 102 43" fill="none" xmlns="http://www.w3.org/2000/svg">
<path d="M10.06 42.6C6.86 42.6 4.42 41.7 2.74 39.9C1.06 38.06 0.22 35.44 0.22 32.04V-2.86102e-06H6.82V32.52C6.82 33.96 7.1 35 7.66 35.64C8.26 36.28 9.1 36.6 10.18 36.6C11.26 36.6 12.08 36.28 12.64 35.64C13.24 35 13.54 33.96 13.54 32.52V-2.86102e-06H19.9V32.04C19.9 35.44 19.06 38.06 17.38 39.9C15.7 41.7 13.26 42.6 10.06 42.6ZM24.6006 -2.86102e-06H32.8806L39.3006 25.14H39.4206V-2.86102e-06H45.3006V42H38.5206L30.6006 11.34H30.4806V42H24.6006V-2.86102e-06ZM50.2061 -2.86102e-06H56.8061V42H50.2061V-2.86102e-06ZM66.9091 6H60.0091V-2.86102e-06H80.4091V6H73.5091V42H66.9091V6ZM83.6045 -2.86102e-06H101.605V6H90.2045V17.1H99.2645V23.1H90.2045V36H101.605V42H83.6045V-2.86102e-06Z" fill="black"/>
</svg>
