<svg width="28" height="28" fill="none" xmlns="http://www.w3.org/2000/svg"><g clip-path="url(#clip0)"><path d="M17.545 20.332h2.186v4.373a3.283 3.283 0 01-3.28 3.28H3.28A3.283 3.283 0 010 24.704V3.28A3.283 3.283 0 013.28 0h13.172a3.283 3.283 0 013.28 3.28v4.372h-2.187V3.279c0-.602-.49-1.093-1.093-1.093H3.279c-.602 0-1.093.49-1.093 1.093v21.426c0 .603.49 1.093 1.093 1.093h13.173c.603 0 1.093-.49 1.093-1.093v-4.373zM22.847 8.84L21.3 10.385l2.514 2.514H9.675v2.186h14.14L21.3 17.6l1.546 1.545L28 13.992 22.847 8.84z" fill="#313131"/></g><defs><clipPath id="clip0"><path fill="#fff" d="M0 0h28v28H0z"/></clipPath></defs></svg>